<svg id="Layer_2" data-name="Layer 2" xmlns="http://www.w3.org/2000/svg" width="5.83847cm" height="2.64583cm" viewBox="0 0 165.5 75">
  <defs>
    <style>
      .cls-1 {
        fill: #8a0538;
      }

      .cls-2, .cls-3 {
        fill: #555;
      }

      .cls-3 {
        fill-rule: evenodd;
      }
    </style>
  </defs>
  <title>logo-pucpr-vermelha</title>
  <g>
    <g>
      <g>
        <path class="cls-1" d="M12.78055,56.47661l.22716.43561a.45374.45374,0,0,0-.2275.66741.42909.42909,0,0,0,.62663.21106c.58784-.30658-.02471-1.56335.85493-2.02218a.83959.83959,0,0,1,1.17206.42144.87752.87752,0,0,1-.39872,1.257l-.22716-.43561a.417.417,0,0,0,.21785-.60319.37957.37957,0,0,0-.5453-.19971c-.57942.30224.0692,1.54555-.84852,2.02425a.97619.97619,0,0,1-.85143-1.7561Z"/>
        <path class="cls-1" d="M14.01648,58.63453l1.13341-.77572A.92159.92159,0,0,1,16.556,58.064.93833.93833,0,0,1,16.27,59.46187l-.26923-.39364c.30654-.24453.35527-.48582.17481-.74955-.15892-.23224-.41752-.28071-.74828-.05445L14.29372,59.04c-.3266.22367-.37507.48216-.21073.72225.18306.26767.42972.307.76337.11907l.26935.39364a.94507.94507,0,0,1-1.41053-.25413A.92316.92316,0,0,1,14.01648,58.63453Z"/>
        <path class="cls-1" d="M17.63573,59.56278,15.08483,61.717l-.31078-.368,2.55079-2.15422Z"/>
        <path class="cls-1" d="M17.20834,63.23521l-.314.32646-1.213-1.16744L17.99645,59.989l1.17842,1.13434-.314.32641-.83162-.80036-.67134.69755.76616.73753-.30751.31959-.76627-.73753-.70769.73528Z"/>
        <path class="cls-1" d="M21.09256,62.51545l-1.91651,2.73444-.39447-.27648.32961-1.767c.06038-.26065.147-.6252.20383-.84755l-.0172-.00042c-.16432.29258-.43237.71649-.613.9743l-.73916,1.05468-.39075-.27374,1.91663-2.7345.39446.27654-.34857,1.83541c-.04659.24111-.12292.56622-.17149.77676l.01709.00041c.15769-.29144.42168-.718.59151-.9602l.74757-1.06645Z"/>
        <path class="cls-1" d="M22.78771,63.89184l-.62279-.31159-1.289,2.57609-.43943-.21984,1.28911-2.57608-.61851-.30946.205-.40949,1.68039.84093Z"/>
        <path class="cls-1" d="M23.72052,63.74305,22.511,66.85552l-.449-.1745,1.20925-3.11247Z"/>
        <path class="cls-1" d="M24.7146,66.85059l-.84909-.24094-.33051.60546-.48637-.13811,1.71955-2.9833.50021.142-.10418,3.4418-.48175-.13682Zm.026-.4587.043-.92012c.014-.22417.05078-.54594.076-.72224l-.01384-.00391c-.071.1633-.20422.45767-.31466.65445l-.44219.80685Z"/>
        <path class="cls-1" d="M26.14392,67.379l-.48744,1.04-.28054-.05669.31927-1.074Z"/>
        <path class="cls-1" d="M27.784,64.76048l.50359.04429.238,1.86923c.04067.30041.06465.62811.08861.89842l.019.00165c.07095-.26186.15629-.58.24416-.86923l.565-1.79853.49887.04373-1.10956,3.25433-.5226-.04583Z"/>
        <path class="cls-1" d="M30.70362,64.94746,30.684,68.28575l-.48158-.00291.01962-3.33829Z"/>
        <path class="cls-1" d="M32.98375,65.36068l-.69606.02522.10421,2.87944-.4911.01769-.10409-2.87944-.69133.025-.0165-.4577,1.87837-.06794Z"/>
        <path class="cls-1" d="M34.66936,67.38266l-.87577.10785-.06926.68619-.50179.06173.42513-3.41651.51607-.06356,1.24122,3.2114-.49719.06116Zm-.15417-.43273-.31792-.86442c-.074-.212-.16528-.52277-.2104-.695l-.01427.00177c-.00209.178-.01051.501-.03567.72525l-.09406.91511Z"/>
        <path class="cls-1" d="M38.64374,66.6514l.13248.43317-1.61.49216-.97582-3.19246,1.56423-.47818.13248.43323-1.10365.33742.283.92584,1.017-.31093.12964.42412-1.017.31087.29836.976Z"/>
        <path class="cls-1" d="M39.81128,63.48567l-.633.29038,1.20127,2.61871-.44662.20481-1.20127-2.61871-.62859.2884-.191-.41618,1.70829-.78359Z"/>
        <path class="cls-1" d="M41.30686,62.502l.59763.79794.80568-.60355.26318.35125-.80557.60344.86939,1.16053-.38539.28889-2.00217-2.6722,1.25977-.94386.27175.36265Z"/>
        <path class="cls-1" d="M42.49362,60.91144,44.78,63.34394l-.35088.32991-2.28647-2.43244Z"/>
        <path class="cls-1" d="M42.88638,60.54872l.53216-.63692a.94624.94624,0,0,1,1.45862-.124l.95913.80126A.95.95,0,0,1,45.984,62.049l-.53519.64063Zm2.74619,1.20672a.51439.51439,0,0,0-.11561-.79908l-.94437-.789a.507.507,0,0,0-.79959.03443l-.22621.2709,1.85957,1.55363Z"/>
        <path class="cls-1" d="M47.6496,58.859l.38516.23861-.88655,1.43128-2.83834-1.75815L45.17132,57.38l.38528.23861-.60777.98126.82313.50984.56-.90414.37706.23352-.56015.90419.86772.53757Z"/>
        <path class="cls-1" d="M47.47853,58.20551l.20751-.44525a.45347.45347,0,0,0,.668-.22535.4289.4289,0,0,0-.21351-.62565c-.60079-.28-1.22553.97043-2.12481.55144a.83947.83947,0,0,1-.3783-1.18648.87735.87735,0,0,1,1.24-.44814l-.20751.44525a.41719.41719,0,0,0-.61125.19392.37955.37955,0,0,0,.17322.55423c.59224.276,1.18444-.99492,2.12243-.55774a.976.976,0,0,1-.87576,1.74377Z"/>
      </g>
      <g>
        <path class="cls-1" d="M30.58954,15.89718c.27575.19126,2.42028,1.585,4.12389-.07179a.12536.12536,0,0,0-.00268-.181,20.70647,20.70647,0,0,0-3.13065-2.41361A.05246.05246,0,0,1,31.555,13.186V10.94963a.05286.05286,0,0,1,.05287-.05286H33.335a.12712.12712,0,0,0,.12712-.12712V9.03377a.12713.12713,0,0,0-.12713-.12713H31.60782a.05287.05287,0,0,1-.05287-.05286V6.70817a.12712.12712,0,0,0-.12711-.12712H29.692a.12712.12712,0,0,0-.12712.12712V8.85378a.05287.05287,0,0,1-.05287.05286H27.78477a.12713.12713,0,0,0-.12713.12713v1.73589a.12711.12711,0,0,0,.12711.12711H29.512a.05286.05286,0,0,1,.05287.05286v2.23642a.05247.05247,0,0,1-.02514.04473,20.70533,20.70533,0,0,0-3.13011,2.41309.12606.12606,0,0,0-.00285.1819c1.70355,1.65615,3.84779.26265,4.12351.07141A.05168.05168,0,0,1,30.58954,15.89718Z"/>
        <path class="cls-1" d="M30.5854,20.747c.34679.19146,4.157,2.20511,6.99223-.11615a.12645.12645,0,0,0,.03507-.14939,17.8737,17.8737,0,0,0-1.28465-2.32036.12863.12863,0,0,0-.10729-.05834H24.899a.1286.1286,0,0,0-.10727.05832,17.87391,17.87391,0,0,0-1.28467,2.32039.12647.12647,0,0,0,.03509.14939c2.83521,2.32124,6.64543.3076,6.99222.11614A.05244.05244,0,0,1,30.5854,20.747Z"/>
      </g>
      <g>
        <path class="cls-1" d="M35.8977,40.97988l-4.63477,2.70956a.12212.12212,0,0,1-.18375-.10543V38.54177a.12212.12212,0,0,1,.06048-.10543l4.63477-2.70955a.12212.12212,0,0,1,.18376.10542v5.04225A.12212.12212,0,0,1,35.8977,40.97988Z"/>
        <path class="cls-1" d="M25.22208,40.97988l4.63477,2.70956a.12212.12212,0,0,0,.18375-.10543V38.54177a.12212.12212,0,0,0-.06048-.10543l-4.63478-2.70955a.12211.12211,0,0,0-.18375.10542v5.04225A.12212.12212,0,0,0,25.22208,40.97988Z"/>
        <path class="cls-1" d="M39.55927,49.79636l-8.29636,4.84843a.12211.12211,0,0,1-.18373-.10543V44.90507a.12213.12213,0,0,1,.0605-.10544L39.436,39.95121a.12211.12211,0,0,1,.18373.10543v9.63429A.1221.1221,0,0,1,39.55927,49.79636Z"/>
        <path class="cls-1" d="M21.56051,49.79636l8.29635,4.84843a.12212.12212,0,0,0,.18374-.10543V44.90507a.12213.12213,0,0,0-.0605-.10544l-8.29636-4.84842a.12212.12212,0,0,0-.18374.10543v9.63429A.12211.12211,0,0,0,21.56051,49.79636Z"/>
      </g>
      <path class="cls-1" d="M22.70555,23.27442a.10519.10519,0,0,1-.10039-.07519A2.82253,2.82253,0,0,0,21.51089,21.705l-6.48224-4.49109a2.33073,2.33073,0,0,0-3.24314.58849l-.6051.8734L8.638,17.06286a.1057.1057,0,0,0-.14589.03263l-1.01962,1.607a.10572.10572,0,0,0,.03263.14591L9.9751,20.41539,4.44763,28.39354a.10572.10572,0,0,0,.02669.14711l6.30919,4.37118a.10573.10573,0,0,0,.14708-.02664L17.854,22.90837a2.01448,2.01448,0,0,1,2.74417-.26089,2.1383,2.1383,0,0,1,.83085,2.36726.10645.10645,0,0,1-.15882.06079l-2.32863-1.47722a.10573.10573,0,0,0-.1435.029L17.71158,25.193a.10573.10573,0,0,0,.03023.14956l8.63785,5.47984a.05287.05287,0,0,1-.02832.09751h-9.004a.10572.10572,0,0,0-.10573.10573v8.36714a.05287.05287,0,0,1-.02455.04464l-6.01859,3.81787a.05287.05287,0,0,1-.0779-.0628,4.34744,4.34744,0,1,0-7.65619,1.089.05144.05144,0,0,1-.02774.0797,4.34727,4.34727,0,1,0,4.416,7.12787.05172.05172,0,0,1,.08406.01079A4.34726,4.34726,0,1,0,12.354,45.13327a.05267.05267,0,0,1-.0221-.09675l4.82854-3.06294a.05287.05287,0,0,1,.08119.04464v5.48a13.31871,13.31871,0,1,0,26.63664.1446V42.01824a.05287.05287,0,0,1,.08118-.04464l4.82852,3.06292a.05267.05267,0,0,1-.0221.09675A4.34755,4.34755,0,1,0,53.18305,51.5a.05183.05183,0,0,1,.08425-.01082,4.34715,4.34715,0,1,0,4.41571-7.128.05134.05134,0,0,1-.02768-.07956,4.32566,4.32566,0,0,0,.79909-2.46886,4.34733,4.34733,0,1,0-8.455,1.38022.05268.05268,0,0,1-.07768.06259l-6.01891-3.81807a.05286.05286,0,0,1-.02455-.04464V31.02563a.10572.10572,0,0,0-.10573-.10573h-9.004a.05287.05287,0,0,1-.02832-.09751l8.6378-5.47981a.10573.10573,0,0,0,.03022-.14956l-1.0865-1.56564a.10573.10573,0,0,0-.1435-.029l-2.32859,1.47723a.10647.10647,0,0,1-.15884-.06079,2.13831,2.13831,0,0,1,.83088-2.36729,2.0144,2.0144,0,0,1,2.74411.26092l6.92349,9.97674a.10571.10571,0,0,0,.14708.02664l6.3092-4.37122a.1057.1057,0,0,0,.02668-.14707L51.176,20.46064a.05286.05286,0,0,1,.01514-.07474l2.42349-1.53749a.1057.1057,0,0,0,.03263-.14589l-1.0196-1.607a.10577.10577,0,0,0-.146-.03264l-2.49944,1.5857a.05288.05288,0,0,1-.07178-.01453l-.57619-.83168a2.33073,2.33073,0,0,0-3.24314-.58849L39.60893,21.705a2.8228,2.8228,0,0,0-1.09432,1.49429.10519.10519,0,0,1-.10039.07518Zm24.207,2.024,1.22715-.85021a.05286.05286,0,0,0,.01334-.07356l-.99213-1.432-.11518-.16629a.10575.10575,0,0,1,.02671-.14714l1.0929-.75719a.10574.10574,0,0,1,.14714.02671l.15079.21766.95652,1.38057a.05286.05286,0,0,0,.07356.01335l1.22717-.85023a.10573.10573,0,0,1,.14712.0267l.7572,1.093a.10572.10572,0,0,1-.0267.14711l-1.22715.85021a.05286.05286,0,0,0-.01335.07356l1.5451,2.2301a.10572.10572,0,0,1-.0267.14713l-1.09293.75722a.10571.10571,0,0,1-.14711-.02669l-1.5451-2.23012a.05286.05286,0,0,0-.07356-.01335l-1.22717.85023a.10574.10574,0,0,1-.14713-.0267L46.8858,25.4456A.10574.10574,0,0,1,46.9125,25.29846ZM14.234,25.44559l-.7572,1.09293a.10574.10574,0,0,1-.14713.0267L12.10253,25.715a.05286.05286,0,0,0-.07356.01335l-1.5451,2.23012a.10576.10576,0,0,1-.14716.0267l-1.09289-.75723a.10573.10573,0,0,1-.02669-.14713l1.5451-2.2301a.05286.05286,0,0,0-.01335-.07356l-1.22721-.85022a.10571.10571,0,0,1-.02669-.1471l.75724-1.09294a.10575.10575,0,0,1,.14714-.0267l1.22716.85022a.05286.05286,0,0,0,.07356-.01335l.95646-1.38057.15085-.21768a.10576.10576,0,0,1,.14714-.02669l1.0929.75719a.10575.10575,0,0,1,.02671.14714l-.11518.16629-.99214,1.432a.05287.05287,0,0,0,.01335.07356l1.22716.85022A.10573.10573,0,0,1,14.234,25.44559ZM4.87887,51.11974a2.598,2.598,0,1,1,2.3786-2.3786A2.59841,2.59841,0,0,1,4.87887,51.11974Zm2.3444-6.76022a2.598,2.598,0,1,1,2.37862-2.37858A2.59839,2.59839,0,0,1,7.22327,44.35952Zm7.13123,4.87067a2.598,2.598,0,1,1-2.37861-2.3786A2.59841,2.59841,0,0,1,14.3545,49.23019Zm9.86464-22.40528a7.3517,7.3517,0,0,0,6.31071-.92873.05118.05118,0,0,1,.06012,0,7.35166,7.35166,0,0,0,6.31065.92874.05253.05253,0,0,1,.0448.09419l-6.23961,3.95841a.27245.27245,0,0,1-.14593.04238h0a.27244.27244,0,0,1-.14592-.04238l-6.23962-3.95841A.05253.05253,0,0,1,24.21914,26.82491ZM42.29306,47.64209a11.73349,11.73349,0,1,1-23.4663-.12738V32.6108a.10572.10572,0,0,1,.10573-.10573H42.18733a.10573.10573,0,0,1,.10573.10573Zm7.27242,4.3883a2.598,2.598,0,1,1,2.37861-2.3786A2.59841,2.59841,0,0,1,49.56548,52.03039Zm1.95241-10.04947a2.598,2.598,0,1,1,2.3786,2.3786A2.59841,2.59841,0,0,1,51.51789,41.98092Zm5.14462,9.13882a2.598,2.598,0,1,1,2.3786-2.3786A2.59841,2.59841,0,0,1,56.66251,51.11974Z"/>
    </g>
    <g>
      <g>
        <path class="cls-1" d="M77.00091,38.35814V19.33068h7.14522c4.02259,0,7.01292,2.77871,7.01292,6.53657,0,3.652-2.99033,6.45713-7.01292,6.45713H81.89677v6.03376Zm4.89586-10.58558h2.17a1.90718,1.90718,0,0,0,2.09061-1.93175,1.927,1.927,0,0,0-2.09061-1.95842h-2.17Z"/>
        <path class="cls-1" d="M92.85285,29.678V19.33068h4.9223V29.678a4.04307,4.04307,0,1,0,8.07139,0V19.33068h4.89586V29.678a8.94493,8.94493,0,0,1-17.88955,0Z"/>
        <path class="cls-1" d="M112.75381,28.83114A9.6404,9.6404,0,0,1,122.75706,19.119a9.04811,9.04811,0,0,1,9.31526,7.83332h-4.89575a4.49557,4.49557,0,0,0-4.41951-3.22863,4.84006,4.84006,0,0,0-4.89576,5.1075,4.86278,4.86278,0,0,0,4.89576,5.134,4.389,4.389,0,0,0,4.39307-3.22862h4.94863a9.0481,9.0481,0,0,1-9.3417,7.83332A9.66157,9.66157,0,0,1,112.75381,28.83114Z"/>
        <path class="cls-1" d="M134.48065,38.35814V19.33068h7.14523c4.02258,0,7.01291,2.77871,7.01291,6.53657,0,3.652-2.99033,6.45713-7.01291,6.45713h-2.24936v6.03376Zm4.89587-10.58558h2.17a1.90718,1.90718,0,0,0,2.09061-1.93175,1.927,1.927,0,0,0-2.09061-1.95842h-2.17Z"/>
        <path class="cls-1" d="M150.8355,38.35814V19.33068h7.03935c3.9696,0,6.98648,2.80515,6.98648,6.3777a6.054,6.054,0,0,1-3.30794,5.37223l3.54612,7.27753h-5.31923l-2.83159-6.35126h-1.24388v6.35126Zm4.86931-10.42672h1.93187a2.128,2.128,0,1,0-.02644-4.23422h-1.90543Z"/>
      </g>
      <g>
        <g>
          <path class="cls-2" d="M83.49394,52.84938l.05812.80538c.02436.246.03367.41245.03367.4985l-.1494.0276a3.08014,3.08014,0,0,0-.8817-1.20893,2.08416,2.08416,0,0,0-1.29258-.4019,3.71866,3.71866,0,0,0-1.45212.229A2.98553,2.98553,0,0,0,78.521,53.91947a3.40778,3.40778,0,0,0-.53708,1.93076,3.28906,3.28906,0,0,0,.196,1.17152,3.59919,3.59919,0,0,0,.55579.9695,3.72345,3.72345,0,0,0,.844.77536,2.35,2.35,0,0,0,.76123.32965,3.34249,3.34249,0,0,0,.74169.06,2.90066,2.90066,0,0,0,.70677-.09254,1.4295,1.4295,0,0,0,.57849-.24194.75219.75219,0,0,0,.27037-.34345,2.57117,2.57117,0,0,0,.07058-.74044,2.48744,2.48744,0,0,0-.1218-1.06685c-.082-.10642-.33771-.16645-.768-.20062l-.21151-.01538-.1425.00408c-.02436-.00408-.0503-.00732-.08688-.01223l-.082-.13635a.195.195,0,0,1,.03941-.06825,10.016,10.016,0,0,1,1.2-.043c.13684,0,.36007.00566.67393.0089l.54273.02519.49568-.00407c.09578,0,.20868.00407.34429.00972.0276.00325.03849.00732.04539.0163a.069.069,0,0,1,.011.04465.63172.63172,0,0,1-.02311.15181,1.75891,1.75891,0,0,1-.34711.04706l-.34386-.00566a.35192.35192,0,0,0-.28127.121.79254.79254,0,0,0-.054.39866l.00325.69746a4.10879,4.10879,0,0,1-.05438.90847.43521.43521,0,0,1-.13435.20868,1.55935,1.55935,0,0,1-.42185.22248,4.048,4.048,0,0,1-.83864.24684,7.68246,7.68246,0,0,1-1.35185.12172,4.71828,4.71828,0,0,1-1.72374-.267,3.401,3.401,0,0,1-1.15373-.74127,3.10356,3.10356,0,0,1-.69131-.96783,3.55629,3.55629,0,0,1-.31136-1.459,3.74944,3.74944,0,0,1,.48837-1.81786,3.6053,3.6053,0,0,1,1.58323-1.44439,4.692,4.692,0,0,1,2.08989-.38568,5.68644,5.68644,0,0,1,1.489.15431,3.7001,3.7001,0,0,1,.92227.35966m1.60069,6.27448a7.34025,7.34025,0,0,0,.87123-.12828.25826.25826,0,0,0,.125-.15514v-.06169c0-.08688.01663-.40672.04589-.95644.00607-.15506.0089-.31178.0089-.45627l-.01663-.63411.01172-.712-.004-1.33.004-.95395a1.589,1.589,0,0,0-.093-.734.76045.76045,0,0,0-.50374-.1908,2.63663,2.63663,0,0,1-.45511-.08281.09154.09154,0,0,1-.04307-.08281.36914.36914,0,0,1,.01871-.0991.40959.40959,0,0,1,.24518-.04947c.01629,0,.06377-.00731.14458-.01463a1.98109,1.98109,0,0,1,.2224-.013H86.112l1.39724-.01455a5.495,5.495,0,0,1,1.65839.1721,1.53742,1.53742,0,0,1,.75059.5927,1.61381,1.61381,0,0,1-.738,2.41463,3.17086,3.17086,0,0,0-.274.164,9.25329,9.25329,0,0,0,.49934.91745l.67468,1.15373A6.10155,6.10155,0,0,0,90.636,58.67a1.30241,1.30241,0,0,0,.37471.26871,3.57137,3.57137,0,0,0,.74169.20294c.00158.03334.00158.06178.00158.08281,0,.02361,0,.04872-.00158.078-.48554.00889-1.05272.00889-1.70586.00889a1.64264,1.64264,0,0,1-.19039-.00889c-.2525-.48064-.544-1.00758-.88578-1.58889l-.78558-1.43142a1.00276,1.00276,0,0,0-.259-.28093.65383.65383,0,0,0-.2756-.05437l-.4478.00565-.15139-.00565c-.00774.112-.01505.34262-.01505.69413v1.813a.92926.92926,0,0,0,.04016.27927.38806.38806,0,0,0,.14615.16728,3.29287,3.29287,0,0,0,.60086.17783l.21392.05845a.2068.2068,0,0,1,.04265.13959.99653.99653,0,0,1-.20178.026c-.31627,0-.54033,0-.66778-.01056-.06984,0-.1238-.00491-.16487-.00491l-.72174.00981-.70519-.0049c-.032,0-.19039.0049-.48063.01463l-.10351-.01954-.01056-.05271a.15911.15911,0,0,1,.071-.11041m1.96767-3.46934c.09462.00324.164.00731.2111.00731a4.58592,4.58592,0,0,0,.88095-.09253,1.32158,1.32158,0,0,0,.56792-.22739,1.13566,1.13566,0,0,0,.36216-.46034,1.44085,1.44085,0,0,0,.14733-.63162,1.54381,1.54381,0,0,0-.22814-.76646,1.35227,1.35227,0,0,0-.58988-.51156,2.22,2.22,0,0,0-1.00108-.20378,3.40872,3.40872,0,0,0-.3694.01547c-.01787.18265-.02436.32474-.02436.41977l.02761.99053-.00325.40838c0,.276.00524.62272.019,1.05222m7.61379-3.17619a.4824.4824,0,0,1,.02552.14042.42681.42681,0,0,1-.01538.09095.74671.74671,0,0,1-.22373.03733.803.803,0,0,1-.125-.00889c-.056,0-.10509-.00324-.13959-.00324a.71886.71886,0,0,0-.38411.0917.251.251,0,0,0-.11848.15672l-.0532.60409.01579,2.62572a10.26679,10.26679,0,0,0,.09461,1.79674,1.34948,1.34948,0,0,0,.30371.57973,1.51245,1.51245,0,0,0,.63893.37837,2.46837,2.46837,0,0,0,.82982.14932,2.94538,2.94538,0,0,0,1.38146-.26139,1.52527,1.52527,0,0,0,.68931-.71533,3.53562,3.53562,0,0,0,.20785-1.39484c0-.01871-.00532-.15913-.01505-.42626v-.151c0-.056.00208-.16728.00973-.33289.00773-.16238.0138-.26065.0138-.28742l-.0804-1.52645a4.92533,4.92533,0,0,0-.08971-.90447.41643.41643,0,0,0-.14649-.207,2.14313,2.14313,0,0,0-.78517-.26464.84.84,0,0,1-.03043-.15588c.13726-.01139.27528-.02037.41088-.02037a4.3082,4.3082,0,0,1,.44488.02037c.23063.0138.35891.02269.38036.02269l.84-.02269h.16479l-.00931.19238a1.8418,1.8418,0,0,0-.77786.19729.56784.56784,0,0,0-.12745.42219c0,.11207.00773.34835.02352.7145l.03293,1.09936-.00324.43515.01463.55214a11.18462,11.18462,0,0,1-.05845,1.41919,2.81234,2.81234,0,0,1-.24077.8314,1.6886,1.6886,0,0,1-.451.5513,2.22724,2.22724,0,0,1-.79648.40672,3.13216,3.13216,0,0,1-.97548.16487,4.17683,4.17683,0,0,1-1.0937-.10634,2.795,2.795,0,0,1-.96692-.48479,1.7411,1.7411,0,0,1-.501-.59511,2.82961,2.82961,0,0,1-.18715-1.148v-.37022l-.015-1.47856.015-1.19754v-.81029a.82055.82055,0,0,0-.08239-.4295.19955.19955,0,0,0-.17052-.08771l-.315.00574a.86606.86606,0,0,1-.44164-.07308.22672.22672,0,0,1-.02112-.08206.10153.10153,0,0,1,.0365-.07957.27312.27312,0,0,1,.14416-.03566h.13269L92.442,52.497h.84279Zm4.82926.043a1.10657,1.10657,0,0,1,.12537-.013c.119,0,.31543.00407.58946.01871.14857.00407.24643.00407.30247.00407.07424,0,.23586-.00407.48794-.01871l.90448-.05279c.2367-.02353.50948-.03492.82533-.03492a3.19849,3.19849,0,0,1,1.32741.23628,1.65743,1.65743,0,0,1,.75957.73721,2.14092,2.14092,0,0,1,.26713,1.006,2.00008,2.00008,0,0,1-.5809,1.43142,2.0833,2.0833,0,0,1-1.5711.60567,1.40325,1.40325,0,0,1-.88494-.26954.26656.26656,0,0,1-.12346-.14616.145.145,0,0,1,.05845-.05362.38865.38865,0,0,1,.15231.03417,1.335,1.335,0,0,0,.45785.06085,1.57471,1.57471,0,0,0,.79166-.20543,1.34955,1.34955,0,0,0,.56552-.58456,1.80208,1.80208,0,0,0,.19039-.8038,1.73906,1.73906,0,0,0-.19979-.80379,1.71652,1.71652,0,0,0-.53093-.62355,1.642,1.642,0,0,0-.56676-.22323,2.97321,2.97321,0,0,0-.59429-.08771,1.84753,1.84753,0,0,0-.77943.0917l-.00773.078.01945.59512-.00607.10958c-.00565.0942-.01338.23878-.01338.43523,0,.7234.01338,1.17236.03408,1.34779v.29955l.06784,2.41787c0,.03575-.00448.10318-.01346.20053-.00649.091-.0109.177-.0109.246a1.38454,1.38454,0,0,0,.03975.38485c.08521.02685.33655.08447.7441.17617.188.04872.29639.07558.3126.08289a.15841.15841,0,0,1,.07466.06735.16908.16908,0,0,1-.05637.10234.30332.30332,0,0,1-.136.02436c-.04016,0-.1425-.01139-.29631-.02436a6.29846,6.29846,0,0,0-.71617-.04872l-.93042.03492-.56019-.01629c-.03334,0-.134.00573-.307.00972l-.00523-.13477.69213-.13635a.44861.44861,0,0,0,.20544-.09178.57469.57469,0,0,0,.05271-.28983c0-.03409.00325-.10234.00366-.20951.00574-.07707.00574-.177.00574-.3077q0-.62592-.05155-2.66389c-.01588-.63735-.022-1.282-.022-1.93882v-.09336a.6575.6575,0,0,0-.11814-.47739,2.07765,2.07765,0,0,0-.98038-.285.38469.38469,0,0,1-.02353-.09744.23944.23944,0,0,1,.02885-.10234m6.37549,3.37756a3.29727,3.29727,0,0,1,.127-.9621,4.20965,4.20965,0,0,1,.43848-.915,3.05849,3.05849,0,0,1,.74169-.82158,4.10655,4.10655,0,0,1,1.20528-.58539,4.46188,4.46188,0,0,1,1.36807-.17867,4.15159,4.15159,0,0,1,1.088.1494,3.82453,3.82453,0,0,1,.96858.41653,3.35686,3.35686,0,0,1,.87239.81677,2.78531,2.78531,0,0,1,.45228.81843,3.56,3.56,0,0,1,.20012,1.19513,4.34271,4.34271,0,0,1-.1307,1.16022,3.2217,3.2217,0,0,1-.453.91013,4.05417,4.05417,0,0,1-.857.807,3.25575,3.25575,0,0,1-1.00308.49369,4.25317,4.25317,0,0,1-1.29142.1908,4.3903,4.3903,0,0,1-1.25682-.164,3.37481,3.37481,0,0,1-.91911-.40273,3.33077,3.33077,0,0,1-.75907-.699,3.16168,3.16168,0,0,1-.59029-1.01572,3.53252,3.53252,0,0,1-.20137-1.21384m3.67961,3.30131a3.727,3.727,0,0,0,.92351-.12587,2.26627,2.26627,0,0,0,.85252-.41653,2.24214,2.24214,0,0,0,.58057-.65273,3.45576,3.45576,0,0,0,.33364-.94672,5.392,5.392,0,0,0,.12745-1.15946,4.91664,4.91664,0,0,0-.21026-1.42569,2.5682,2.5682,0,0,0-.53584-.95727,2.51751,2.51751,0,0,0-.89516-.64866,2.69323,2.69323,0,0,0-1.12081-.23545,2.87447,2.87447,0,0,0-.94181.16071,2.49377,2.49377,0,0,0-.75873.40764,2.56,2.56,0,0,0-.55372.69654,4.087,4.087,0,0,0-.38443,1.00275,4.14177,4.14177,0,0,0-.13361.9621,4.40458,4.40458,0,0,0,.13361.99626,3.78351,3.78351,0,0,0,.36124.96617,3.11305,3.11305,0,0,0,.56676.72174,2.32,2.32,0,0,0,.76032.484,2.36674,2.36674,0,0,0,.89475.17052"/>
          <path class="cls-3" d="M116.70773,59.25215l.01538-.36216a1.52891,1.52891,0,0,0,.84479-.2712,1.39623,1.39623,0,0,0,.18232-.66171l.06577-1.89335.082-1.925c.00366-.117.00773-.18673.00773-.21358a2.21334,2.21334,0,0,0-.08688-.86707,1.42078,1.42078,0,0,0-.68041-.22572c-.09861-.02112-.17776-.03983-.23546-.05521a2.01973,2.01973,0,0,1-.01056-.22007V52.385c.13078-.00324.28709-.013.464-.013l1.55563.05271c.03209.00574.08447.01139.14616.0163l.246.00731a2.01112,2.01112,0,0,1,.18232.2801c.12945.26389.302.64217.518,1.1391l.05886.14367.82691,1.80164c.02319.04306.052.10475.09178.18839.05438.1218.10842.24518.16845.35725.05478.11773.11323.24277.17742.38319.067.13644.12138.26148.1701.36624a2.65752,2.65752,0,0,0,.14658-.28019c.14449-.32308.276-.62271.41486-.89957.233-.48387.55205-1.21783.9532-2.21085.06252-.16.1672-.39783.31743-.71526.14375-.3264.22572-.49368.23953-.5123a.30825.30825,0,0,1,.1908-.04141c.03492,0,.08929-.00407.16237-.00407.18674-.0138.41-.02436.66579-.02927.371-.00407.66819-.013.89225-.03325.2298-.01954.35485-.02844.38245-.02844.0365,0,.0779.00408.12745.0089.00324.04872.00324.09262.00324.11615l-.00889.15913c0,.03491,0,.08363-.00408.14616a2.77787,2.77787,0,0,0-.81435.22248c-.14533.073-.21683.15988-.21683.2663v.08114l.08938,1.62464c.01213.14616.03974.88909.08688,2.21975.01214.29556.03566.66827.07058,1.1302.00649.056.01056.10392.01056.13236.00566.08522.01954.13718.05438.1632.03491.02519.35317.125.95486.30853.00407.06011.00565.09744.00565.12663,0,.078-.00158.15264-.00565.22248-.0942,0-.3378-.0138-.72266-.05687a9.24872,9.24872,0,0,0-1.088-.06169c-.51306,0-1.00916.0163-1.49635.06169-.06169.00981-.125.01388-.18591.01788l.01139-.36615a2.59944,2.59944,0,0,1,.57966-.14616.48951.48951,0,0,0,.324-.1445,1.29159,1.29159,0,0,0,.06984-.56186c0-.11606-.00324-.21841-.00649-.31011-.01787-.37355-.02843-.88586-.03333-1.54507l-.08847-1.88046c-.01055-.2663-.02436-.45053-.03816-.5488L122.2194,56.775c-.03167.06818-.07956.17451-.14208.30521-.0804.17376-.1381.29556-.164.35725-.2756.65689-.464,1.157-.57158,1.50616-.02927.08605-.07026.20378-.12829.34828l-.40963-.01056-.28492-.81195c-.08688-.2135-.231-.53259-.434-.96858-.12421-.25415-.216-.45386-.28459-.61057a.79129.79129,0,0,1-.06576-.1445l-.067-.13153a.11707.11707,0,0,0-.01821-.05113l-.78841-1.705-.48271-1.03925-.04748,2.51531-.0345,1.632a.86883.86883,0,0,0,.15181.57566,1.31746,1.31746,0,0,0,.65282.29473l.25491.0641v.39134a6.17,6.17,0,0,1-.66454-.04955c-.23221-.02353-.54881-.03891-.93616-.03891-.082,0-.43191.01538-1.04731.04872m9.56391,0h.09744a4.78238,4.78238,0,0,0,.74934-.05928l.21841-.04141c.8314.06,1.35268.09088,1.57591.09088a.77013.77013,0,0,0,.01056-.12505c0-.04872-.00158-.13477-.00723-.26546-.22173-.03-.34752-.0503-.38244-.05762a.94729.94729,0,0,1-.46442-.14208.23666.23666,0,0,1-.07225-.19813,1.355,1.355,0,0,1,.10068-.37837c.23545-.66736.39217-1.08306.46683-1.25192l2.0282.004.41894,1.0385.21109.52686a.39135.39135,0,0,1,.02677.14375.17566.17566,0,0,1-.04955.121,1.36348,1.36348,0,0,1-.31094.10633l-.5927.12588a3.20661,3.20661,0,0,0-.01464.35808l.26231-.00973.90281-.04547c.12338-.0138.32641-.01788.6016-.01788.25416,0,.54158.01788.85418.03974.31336.02361.604.03742.86956.03742.00241-.052.00241-.08938.00241-.11532a1.60171,1.60171,0,0,0-.02843-.26064,2.02239,2.02239,0,0,0-.466-.12746.57854.57854,0,0,1-.3077-.10558.70009.70009,0,0,1-.16-.25657,6.00574,6.00574,0,0,1-.29066-.682c-.12753-.33447-.22414-.58131-.29232-.74934-.1218-.27769-.26388-.63577-.4295-1.06934-.17052-.44164-.35725-.89226-.56593-1.3551l-.92393-2.18891-.04548-.09577h-.57965l-1.2609,3.30206-1.07259,2.81487a.98937.98937,0,0,1-.216.30446,1.63076,1.63076,0,0,1-.49443.14532c-.17376.0301-.289.05845-.35642.07716Zm2.50392-2.98464.768-2.05655c.10717.22489.24036.54149.41329.95719.16969.42227.30936.78925.41653,1.10834l-.1356.00565c-.151,0-.63577-.00565-1.46227-.01463m5.23033,2.6623a1.11171,1.11171,0,0,0-.01463.16395c0,.02353.00407.08123.01056.16886H134.23a5.01919,5.01919,0,0,0,.61374-.03816l.73071-.04947c.04141,0,.108-.00324.19979-.00324.14283,0,.59345.03168,1.35584.10143l.21434-.01056c.02037,0,.06177.00491.12994.00491a2.6901,2.6901,0,0,0,.022-.39134,4.30534,4.30534,0,0,0-.7145-.20619,1.30866,1.30866,0,0,1-.38976-.13319l.03417-1.00275-.02436-1.18133a3.24612,3.24612,0,0,1,.01455-.36208c.16811-.00731.29149-.0138.36049-.0138a1.01481,1.01481,0,0,1,.55047.11124,2.36552,2.36552,0,0,1,.37189.58946c.3792.75184.643,1.2974.80213,1.64734.0577.12911.164.32724.3151.59436l.17692.34828c.056-.00973.13643-.01538.2298-.02519.20544-.02353.33456-.03891.37022-.03891l.5326.00806a2.58533,2.58533,0,0,1,.419.02685h.21758l.27843.03484.10642-.00565h.1445c.00241-.04872.00407-.09254.00407-.12014a.44448.44448,0,0,0-.03167-.16079,1.71866,1.71866,0,0,0-.367-.17859,1.22786,1.22786,0,0,1-.40273-.21034,3.62564,3.62564,0,0,1-.42061-.63486l-.84678-1.38112c-.09253-.14932-.21275-.32956-.36215-.54232a2.87259,2.87259,0,0,1-.17127-.26064,2.11834,2.11834,0,0,0,1.0725-.6593,1.57554,1.57554,0,0,0,.34429-.97506,1.64024,1.64024,0,0,0-.64467-1.27312,2.56692,2.56692,0,0,0-1.73347-.55779,12.467,12.467,0,0,0-1.312.06826l-.66412.02918-.2801.0138c-.02111,0-.15913-.00973-.41653-.03159-.24518,0-.41162.00889-.49119.00889a2.94232,2.94232,0,0,0-.48878.04224l-.022.05928.01056.31909c.09254.01455.28659.03325.56918.05271l.31585.06335c.01787.20137.02594.67634.02594,1.41271,0,.33855-.00325.69505-.0138,1.0839l-.01214.28666.01214.496-.02112.63577.00573,1.18457a4.29662,4.29662,0,0,1-.01546.51231,1.20708,1.20708,0,0,1-.02677.15506,2.47857,2.47857,0,0,1-.49285.11614,1.18194,1.18194,0,0,0-.40922.108m2.396-3.44332v-.14782c.00158-.25981.00482-.46924.01455-.62837l-.004-.58057.0138-.43681-.00981-.71526.00981-.10234a2.5953,2.5953,0,0,1,.41969-.02918,2.751,2.751,0,0,1,.74784.07707,1.26984,1.26984,0,0,1,.51306.31668,1.095,1.095,0,0,1,.23063.43848,2.04878,2.04878,0,0,1,.0917.63,1.07959,1.07959,0,0,1-.37429.86549,1.97564,1.97564,0,0,1-1.282.32316c-.082,0-.20128-.00574-.371-.01056m5.18726,3.77131c.069-.00565.22332-.01546.45228-.039.35967-.03326.63162-.0528.82159-.0528l.937.009c.423.04382.65763.06735.70876.07716a1.079,1.079,0,0,0,.138.01538c.01629,0,.082,0,.1933-.00973a.571.571,0,0,1,.10716-.00565c.00408-.0804.00566-.14616.00566-.18358,0-.0641-.0089-.15505-.01946-.26056-.18756-.02926-.2939-.0414-.3215-.0439-.18108-.02028-.3743-.05437-.59029-.0966a.38189.38189,0,0,1-.03-.1218l.01214-.20212-.01463-1.06444.02278-.71126-.00815-1.40373c0-.31992.00815-.78268.01788-1.37863-.00973-.09827-.01788-.22331-.01788-.37188a1.9418,1.9418,0,0,1,.03334-.40431,4.04985,4.04985,0,0,1,.44979-.134,4.98992,4.98992,0,0,0,.483-.14042,2.296,2.296,0,0,0,.0163-.23138c0-.04872-.00333-.11041-.00732-.16811-.06826,0-.233.01139-.48878.02677-.4596.02843-.79648.0439-1.00275.0439-.04872,0-.16395-.00408-.354-.013l-1.51664-.0577.01381.46359a1.28117,1.28117,0,0,0,.18191.01953,1.96972,1.96972,0,0,1,.70718.125,1.20827,1.20827,0,0,1,.03484.168l.01056.23221.02843.59761-.01463.29224.01056.708c0,.01945-.01622.38078-.04141,1.08389l.00408.285-.013,1.217.00889.622a.9378.9378,0,0,1-.09744.45951,2.16215,2.16215,0,0,1-.513.17376c-.164.039-.27935.069-.34836.09337Zm8.36437-6.73075a5.3724,5.3724,0,0,0-.80139-.22249,4.93884,4.93884,0,0,0-.75183-.09336,2.47361,2.47361,0,0,0-1.78942.591,1.95085,1.95085,0,0,0-.60409,1.43873,2.01942,2.01942,0,0,0,.216.87447,1.85214,1.85214,0,0,0,.5967.72581,5.99461,5.99461,0,0,0,1.35509.6179,4.09715,4.09715,0,0,1,1.19755.55371.92362.92362,0,0,1,.16246,1.325,1.14561,1.14561,0,0,1-.55862.4019,1.86939,1.86939,0,0,1-.6317.12179,1.69963,1.69963,0,0,1-.59919-.09744,1.6404,1.6404,0,0,1-.47331-.26546,1.78387,1.78387,0,0,1-.36374-.44089c-.05038-.08281-.15913-.31984-.32724-.71775l-.49609.0138v.199c0,.099.00249.26222.00981.48961.02028.45062.02918.69172.02918.72988V58.834a.17378.17378,0,0,0,.04631.09827.96415.96415,0,0,0,.33289.13153l.63976.1884a4.64006,4.64006,0,0,0,.88661.10791,3.72424,3.72424,0,0,0,.92318-.09744,2.50746,2.50746,0,0,0,.6958-.31011,3.09821,3.09821,0,0,0,.4936-.37671,1.3781,1.3781,0,0,0,.324-.4847,2.69442,2.69442,0,0,0,.18506-.98321,2.207,2.207,0,0,0-.11689-.7624,2.0003,2.0003,0,0,0-.44006-.63577,2.21082,2.21082,0,0,0-.7007-.46275,5.67007,5.67007,0,0,0-.78343-.30529,3.05954,3.05954,0,0,1-1.26747-.6.93413.93413,0,0,1-.29714-.6544.86848.86848,0,0,1,.30122-.67792,1.195,1.195,0,0,1,.82815-.27444,1.26779,1.26779,0,0,1,.95237.42625,2.64616,2.64616,0,0,1,.46442.95237l.06817.0089.38.026.05437-.0138a1.38808,1.38808,0,0,0,.01946-.20378,8.09956,8.09956,0,0,0-.06086-.85742,3.61031,3.61031,0,0,0-.099-.54639m1.63519-.44821c-.02843.06493-.06659.20544-.12429.41088a11.19642,11.19642,0,0,1-.45544,1.37779,1.23717,1.23717,0,0,0,.31418.20785c.04066,0,.10717-.05928.19405-.17052a3.17874,3.17874,0,0,1,.68524-.72664,1.65806,1.65806,0,0,1,.66986-.0942c.60733,0,.96292.0089,1.07333.02436a.11376.11376,0,0,1,.07475.03.15425.15425,0,0,1,.04057.0715,9.36471,9.36471,0,0,1,.02843,1.00109l.02844,2.01273c0,.92394-.01306,1.60593-.03742,2.02812a.73251.73251,0,0,1-.06327.26555,3.876,3.876,0,0,1-.76646.24276.7473.7473,0,0,0-.44172.22648v.04306l.00573.1218c.00324.02761.00732.06735.013.12172.05845,0,.1884-.00565.39051-.021.518-.04066.82982-.05928.93532-.05928.66986,0,1.13345.00731,1.38836.03733.25582.02195.5651.03733.92967.03733.05113,0,.11365,0,.19246-.00491a.88151.88151,0,0,0,.01863-.13876c0-.0276-.01056-.10318-.0276-.23387-.08522-.02844-.17784-.056-.285-.082-.23545-.05928-.367-.08122-.39541-.08605a1.44463,1.44463,0,0,1-.31252-.06983,1.70569,1.70569,0,0,1-.0666-.54973l.00491-.69413-.01713-1.68633V54.1565l-.00723-.71034a2.69539,2.69539,0,0,1,.03-.3378c.1494-.01546.272-.02436.37188-.02436a11.10841,11.10841,0,0,1,1.13179.0276.292.292,0,0,1,.14774.09179,2.29273,2.29273,0,0,1,.2046.43756,3.91764,3.91764,0,0,0,.30039.6,1.82724,1.82724,0,0,0,.38327-.09012,1.06,1.06,0,0,0,.02187-.23462l.00731-.2712-.00731-.475c0-.49443-.00241-.85983-.00723-1.105-.06826-.00158-.12022-.00732-.15672-.00732l-.23546.00732c-.02685.06011-.04223.10309-.05769.13236a.61625.61625,0,0,1-.14932.26222l-.31178.0439H155.606l-1.2-.00324-.64466.00324-.10792.00889c-.21276.00325-.45469.00325-.72914.00325-.436,0-.68042-.00325-.72747-.01214a2.20376,2.20376,0,0,1-.22731-.341c-.01222-.01871-.02685-.04631-.05279-.08364Zm5.96753,7.17331h.09337a4.80617,4.80617,0,0,0,.75183-.05928l.21841-.04141c.82816.06,1.35426.09088,1.5735.09088a.63181.63181,0,0,0,.01131-.12505c0-.04872-.00324-.13477-.00482-.26546-.21841-.03-.34836-.0503-.37837-.05762a.95258.95258,0,0,1-.4709-.14208.24133.24133,0,0,1-.07067-.19813,1.42888,1.42888,0,0,1,.0991-.37837c.2387-.66736.39292-1.08306.46766-1.25192l2.03061.004.41487,1.0385.21109.52686a.40743.40743,0,0,1,.02677.14375.155.155,0,0,1-.05354.121,1.1358,1.1358,0,0,1-.30446.10633l-.5927.12588c-.009.11448-.0163.23387-.0163.35808l.26147-.00973.902-.04547c.12587-.0138.32965-.01788.60734-.01788.25249,0,.53508.01788.85251.03974.31585.02361.6016.03742.86715.03742.00241-.052.00408-.08938.00408-.11532a2.01637,2.01637,0,0,0-.02686-.26064,2.06237,2.06237,0,0,0-.46841-.12746.59091.59091,0,0,1-.31019-.10558.70267.70267,0,0,1-.15589-.25657,5.95072,5.95072,0,0,1-.29307-.682c-.1267-.33447-.22248-.58131-.29149-.74934-.11938-.27769-.26388-.63577-.43033-1.06934-.16728-.44164-.35484-.89226-.56668-1.3551l-.92152-2.18891-.04714-.09577h-.57807l-1.25766,3.30206-1.07334,2.81487a1.00527,1.00527,0,0,1-.21674.30446,1.66812,1.66812,0,0,1-.49527.14532c-.173.0301-.28907.05845-.35808.07716Zm2.4991-2.98464.77046-2.05655c.10717.22489.24277.54149.4157.95719.16886.42227.30936.78925.41653,1.10834l-.1356.00565c-.147,0-.63735-.00565-1.46709-.01463"/>
        </g>
        <rect class="cls-2" x="77.04295" y="44.92349" width="88.13631" height="0.50582"/>
      </g>
    </g>
  </g>
</svg>
